# xmcd CD database file
#
# Track frame offsets:
#	150
#	31101
#	74620
#	98631
#	136588
#	165125
#	179648
#	198460
#	221102
#	247469
#	266960
#	302085
#	321521
#
# Disc length: 4628 seconds
#
# Revision: 0
# Processed by: cddbd v1.5.2PL0 Copyright (c) Steve Scherf et al.
# Submitted via: CDex 1.70beta2
#
DISCID=c612120d
DTITLE=Paata - Classic meets Jazz
DYEAR=2007
DGENRE=Jazz
TTITLE0=Event
TTITLE1=Jesus bleibt meine Freude
TTITLE2=Fantasie - Impromptu
TTITLE3=Caravan
TTITLE4=Barcarole
TTITLE5=Rondo alla Turca
TTITLE6=Schicksalsrad
TTITLE7=Blue Moon
TTITLE8=Loreley
TTITLE9=Summertime
TTITLE10=Bei mir bist du schön
TTITLE11=Suliko
TTITLE12=Rhapsodie
EXTD=YEAR: 2007
EXTT0=
EXTT1=
EXTT2=
EXTT3=
EXTT4=
EXTT5=
EXTT6=
EXTT7=
EXTT8=
EXTT9=
EXTT10=
EXTT11=
EXTT12=
PLAYORDER=
